<svg version="1.1" id="Layer_1" xmlns="http://www.w3.org/2000/svg" xmlns:xlink="http://www.w3.org/1999/xlink" x="0px" y="0px"
	 width="207px" height="84px" viewBox="0 0 207 84" enable-background="new 0 0 207 84" xml:space="preserve">
<g class="vuybe">
	<path d="M80.399,31.601c0-2.1,1.8-3.9,4.2-3.9s4.2,1.8,4.2,3.9V54.4c0,2.1-1.8,3.899-4.2,3.899c-3,0-4.2-3-4.2-3h-0.6
		c0,0-2.4,3.6-7.5,3.6c-6,0-11.099-5.1-11.099-12.6V31.601c0-2.1,1.8-3.9,4.2-3.9s4.2,1.8,4.2,3.9V46.3c0,3,2.4,5.4,5.4,5.4
		c3,0,5.4-2.4,5.4-5.4V31.601z"/>
	<path d="M104.999,55l-10.8-20.399c0,0-0.9-1.5-0.9-3c0-2.1,1.8-3.9,4.2-3.9s3.24,0.96,4.5,3.3l7.2,13.2h0.6l5.7-12.899
		c0.9-2.04,2.4-3.6,4.5-3.6c2.4,0,4.2,1.8,4.2,3.9c0,1.2-0.9,3-0.9,3l-14.7,32.999c-0.9,2.1-2.4,3.6-4.5,3.6
		c-2.4,0-4.2-1.8-4.2-3.899c0-1.2,0.9-3,0.9-3L104.999,55z"/>
</g>
<g>
	<path id="v" d="M60.449,55.3L49.65,25.901c0,0-1.2-3-1.2-4.5c0-2.4,2.1-4.5,4.8-4.5c2.7,0,4.14,1.5,5.1,4.2l9,25.799h0.6l9-25.799
		c0.96-2.7,2.4-4.2,5.1-4.2c2.7,0,4.8,2.1,4.8,4.5c0,1.5-1.2,4.5-1.2,4.5L74.849,55.3c-1.2,3.3-3.3,5.4-7.199,5.4
		C63.75,60.7,61.649,58.6,60.449,55.3z"/>
	<path class="i" d="M91.649,20.501c0-2.4,1.8-4.2,4.5-4.2c2.7,0,4.5,1.8,4.5,4.2s-1.86,4.2-4.5,4.2C93.45,24.701,91.649,22.901,91.649,20.501z
		 M100.349,55.9c0,2.1-1.8,3.899-4.2,3.899s-4.2-1.8-4.2-3.899V33.101c0-2.1,1.8-3.9,4.2-3.9s4.2,1.8,4.2,3.9V55.9z"/>
<g class="be">

	<path d="M107.849,20.802c0-2.1,1.8-3.9,4.2-3.9s4.2,1.8,4.2,3.9v11.399h0.6c0,0,2.4-3.6,7.5-3.6c6.3,0,11.7,5.1,11.7,12.9v6
		c0,6.9-6,12.899-14.1,12.899s-14.1-6-14.1-12.899V20.802z M116.249,41.501v6c0,3.3,2.4,5.7,5.7,5.7s5.7-2.4,5.7-5.7v-6
		c0-3.3-2.4-5.7-5.7-5.7S116.249,38.201,116.249,41.501z"/>
	<path d="M169.647,43.601c0,2.1-1.8,3.9-4.2,3.9h-15.599c0,3.3,2.4,5.7,6,5.7c5.4,0,6-2.7,9-2.7c2.1,0,3.6,1.5,3.6,3.3
		c0,2.7-3.9,6.6-12.6,6.6c-8.399,0-14.399-6-14.399-12.899v-6c0-6.9,6-12.9,14.1-12.9s14.1,6,14.1,12.9V43.601z M161.248,41.201
		c0-3-2.4-5.4-5.7-5.4s-5.7,2.4-5.7,5.4H161.248z"/>
 </g>
</g>
</svg>
