<?xml version="1.0" encoding="utf-8"?>
<svg version="1" class="phone" id="Layer_1" viewBox="0 0 417.464 292.581" xmlns="http://www.w3.org/2000/svg" xmlns:xlink="http://www.w3.org/1999/xlink" xmlns:bx="https://boxy-svg.com">
  <style>
            .st2{fill:#d6d6db}.st5{fill:#b0b0b5}.st19,.st20{fill:none;stroke:#c9c9ce;stroke-width:2;stroke-linecap:round;stroke-linejoin:round;stroke-miterlimit:10}.st20{stroke:#adadb2}.st23{fill:#bfbfc4}
          </style>
  <defs>
    <path id="SVGID_1_" d="M2714 786l-1659 927c-67 38-150 34-214-9l-630-428a116 116 0 0 1-30-172l1-1h1l2-3c9-10 19-18 32-25l1659-927c63-39 143-35 206 10l39 26 532 361 70 47 14 11 2 3 3 2 1 2 3 3c46 52 33 136-32 173z"/>
  </defs>
  <defs>
    <filter id="f1" width="200%" height="200%">
      <feOffset result="offOut" in="SourceGraphic" dx="0" dy="0"/>
      <feGaussianBlur result="blurOut" in="offOut" stdDeviation="60"/>
      <feBlend in="SourceGraphic" in2="blurOut" mode="normal"/>
    </filter>
  </defs>
  <clipPath id="SVGID_2_">
    <path d="M 2714 786 L 1055 1713 C 988 1751 905 1747 841 1704 L 211 1276 C 151.027 1239.547 136.909 1158.604 181 1104 L 182 1103 L 183 1103 L 185 1100 C 194 1090 204 1082 217 1075 L 1876 148 C 1939 109 2019 113 2082 158 L 2121 184 L 2653 545 L 2723 592 L 2737 603 L 2739 606 L 2742 608 L 2743 610 L 2746 613 C 2792 665 2779 749 2714 786 Z"/>
  </clipPath>
  <path fill="##C1C1C1" style="opacity:0.1;" filter="url(#f1)" d="M 399.101 122.742 L 145.634 264.372 C 135.397 270.178 122.716 269.566 112.938 262.997 L 16.685 197.606 C 7.522 192.036 5.365 179.669 12.101 171.327 L 12.254 171.174 L 12.407 171.174 L 12.713 170.716 C 14.088 169.188 15.616 167.966 17.602 166.896 L 271.069 25.266 C 280.694 19.308 292.917 19.919 302.542 26.794 L 308.501 30.766 L 389.781 85.921 L 400.476 93.102 L 402.615 94.783 L 402.92 95.241 L 403.379 95.547 L 403.532 95.852 L 403.99 96.31 C 411.018 104.255 409.032 117.089 399.101 122.742 Z" bx:origin="-0.388093 -0.490678">
    <title>bg</title>
  </path>
  <g clip-path="url(#SVGID_2_)" transform="matrix(0.152783, 0, 0, 0.152783, -15.552394, 2.654593)" bx:origin="-0.388101 -0.490678">
    <path d="M2714 786l-1659 927c-67 38-150 34-214-9l-630-428a116 116 0 0 1-30-172l1-1h1l2-3c9-10 19-18 32-25l1659-927c63-39 143-35 206 10l39 26 532 361 70 47 14 11 2 3 3 2 1 2 3 3c46 52 33 136-32 173z" fill="#c2c2c7" style=""/>
    <path class="st2" d="M2690 676l-1648 919c-56 31-125 28-178-8l-622-419a54 54 0 0 1 4-92l1651-921c55-31 124-28 176 8l75 50c4 3 4 9 0 12l-17 12a29 29 0 0 0 0 49l346 233c29 20 68 22 99 5l4-3c8-4 17-4 24 1l89 61c34 23 32 73-3 93z" style="">
      <title>front</title>
    </path>
    <path class="st5" d="M245 1273l-1 3c-1 4-5 5-9 2-6-3-10-10-10-16 0-5 2-7 6-7l4 1c5 3 10 11 10 17z" style=""/>
    <linearGradient id="SVGID_3_" gradientUnits="userSpaceOnUse" x1="228" y1="1427" x2="251" y2="1393" gradientTransform="translate(0 -148)">
      <stop offset="0" stop-color="#b5b5ba"/>
      <stop offset="1" stop-color="#828287"/>
    </linearGradient>
    <path d="M245 1273l-1 3-4-1c-5-3-10-11-10-17l1-3 4 1c5 3 10 11 10 17z" fill="url(#SVGID_3_)"/>
    <path class="st5" d="M270 1291l-1 3c-1 4-5 5-9 2-6-3-10-10-10-16 0-5 2-8 6-7l4 1c5 3 10 11 10 17z"/>
    <linearGradient id="SVGID_4_" gradientUnits="userSpaceOnUse" x1="253" y1="1445" x2="277" y2="1411" gradientTransform="translate(0 -148)">
      <stop offset="0" stop-color="#b5b5ba"/>
      <stop offset="1" stop-color="#828287"/>
    </linearGradient>
    <path d="M270 1291l-1 3-4-1c-5-3-10-11-10-17l1-3 4 1c5 3 10 11 10 17z" fill="url(#SVGID_4_)"/>
    <path class="st5" d="M295 1308l-1 3c-1 4-5 5-9 2-6-3-10-11-10-17 0-4 2-7 6-7l4 2c5 3 10 10 10 17z"/>
    <linearGradient id="SVGID_5_" gradientUnits="userSpaceOnUse" x1="277" y1="1462" x2="301" y2="1428" gradientTransform="translate(0 -148)">
      <stop offset="0" stop-color="#b5b5ba"/>
      <stop offset="1" stop-color="#828287"/>
    </linearGradient>
    <path d="M295 1308l-1 3-4-2c-5-3-10-10-10-16l1-4 4 2c5 3 10 10 10 17z" fill="url(#SVGID_5_)"/>
    <path class="st5" d="M321 1325l-1 4c-1 3-5 5-9 2-6-3-10-11-10-17 0-4 2-7 6-7l4 2c5 3 10 10 10 16z"/>
    <linearGradient id="SVGID_6_" gradientUnits="userSpaceOnUse" x1="303" y1="1481" x2="327" y2="1447" gradientTransform="translate(0 -148)">
      <stop offset="0" stop-color="#b5b5ba"/>
      <stop offset="1" stop-color="#828287"/>
    </linearGradient>
    <path d="M321 1325l-1 4-4-2c-5-3-10-10-10-16l1-4 4 2c5 3 10 10 10 16z" fill="url(#SVGID_6_)"/>
    <path class="st5" d="M347 1342l-1 3c-1 4-5 5-9 2-5-3-10-10-10-16 0-5 3-7 6-7l4 1c6 3 10 11 10 17z"/>
    <linearGradient id="SVGID_7_" gradientUnits="userSpaceOnUse" x1="328" y1="1498" x2="352" y2="1464" gradientTransform="translate(0 -148)">
      <stop offset="0" stop-color="#b5b5ba"/>
      <stop offset="1" stop-color="#828287"/>
    </linearGradient>
    <path d="M347 1342l-1 3-4-1c-5-3-9-11-9-17v-3l4 1c6 3 10 11 10 17z" fill="url(#SVGID_7_)"/>
    <path class="st5" d="M373 1360l-1 3c-1 4-5 5-9 3-6-4-10-11-10-17 0-5 2-7 6-7l4 1c5 3 10 11 10 17z"/>
    <linearGradient id="SVGID_8_" gradientUnits="userSpaceOnUse" x1="354" y1="1516" x2="378" y2="1482" gradientTransform="translate(0 -148)">
      <stop offset="0" stop-color="#b5b5ba"/>
      <stop offset="1" stop-color="#828287"/>
    </linearGradient>
    <path d="M373 1360l-1 3-4-1c-5-3-10-11-10-17l1-3 4 1c5 3 10 11 10 17z" fill="url(#SVGID_8_)"/>
    <g>
      <path class="st5" d="M681 1566v3c-2 4-5 5-10 3-5-4-9-11-9-17 0-5 2-7 5-7l4 1c6 3 10 11 10 17z"/>
      <linearGradient id="SVGID_9_" gradientUnits="userSpaceOnUse" x1="664" y1="1720" x2="688" y2="1686" gradientTransform="translate(0 -148)">
        <stop offset="0" stop-color="#b5b5ba"/>
        <stop offset="1" stop-color="#828287"/>
      </linearGradient>
      <path d="M681 1566v3l-4-1c-6-3-10-11-10-17l1-3 4 1c5 3 9 11 9 17z" fill="url(#SVGID_9_)"/>
      <path class="st5" d="M706 1584v3c-2 4-5 5-10 2s-9-10-9-16c0-5 2-8 5-7l4 1c6 3 10 11 10 17z"/>
      <linearGradient id="SVGID_10_" gradientUnits="userSpaceOnUse" x1="689" y1="1738" x2="713" y2="1704" gradientTransform="translate(0 -148)">
        <stop offset="0" stop-color="#b5b5ba"/>
        <stop offset="1" stop-color="#828287"/>
      </linearGradient>
      <path d="M706 1584v3l-4-1c-6-3-10-11-10-17l1-3 4 1c5 3 9 11 9 17z" fill="url(#SVGID_10_)"/>
      <path class="st5" d="M731 1601v3c-2 4-5 5-10 2s-9-10-9-17c0-4 2-7 5-6l4 1c6 3 10 10 10 17z"/>
      <linearGradient id="SVGID_11_" gradientUnits="userSpaceOnUse" x1="714" y1="1755" x2="738" y2="1721" gradientTransform="translate(0 -148)">
        <stop offset="0" stop-color="#b5b5ba"/>
        <stop offset="1" stop-color="#828287"/>
      </linearGradient>
      <path d="M731 1601v3l-4-2c-6-3-10-10-10-16l1-3 4 1c5 3 9 10 9 17z" fill="url(#SVGID_11_)"/>
      <path class="st5" d="M757 1619v3c-2 4-5 5-10 2s-9-11-9-17c0-4 2-7 5-7l4 2c6 3 10 10 10 17z"/>
      <linearGradient id="SVGID_12_" gradientUnits="userSpaceOnUse" x1="740" y1="1774" x2="764" y2="1740" gradientTransform="translate(0 -148)">
        <stop offset="0" stop-color="#b5b5ba"/>
        <stop offset="1" stop-color="#828287"/>
      </linearGradient>
      <path d="M757 1619v3l-4-2c-6-3-10-10-10-16l1-4 4 2c5 3 9 10 9 17z" fill="url(#SVGID_12_)"/>
      <path class="st5" d="M784 1635l-1 3c-1 4-5 5-9 3-6-4-10-11-10-17 0-5 2-7 6-7l4 1c5 3 10 11 10 17z"/>
      <linearGradient id="SVGID_13_" gradientUnits="userSpaceOnUse" x1="765" y1="1791" x2="789" y2="1757" gradientTransform="translate(0 -148)">
        <stop offset="0" stop-color="#b5b5ba"/>
        <stop offset="1" stop-color="#828287"/>
      </linearGradient>
      <path d="M784 1635l-1 3-4-1c-5-3-10-11-10-17l1-3 4 1c5 3 10 11 10 17z" fill="url(#SVGID_13_)"/>
      <path class="st5" d="M809 1653v3c-1 4-5 5-9 3-6-3-10-11-10-17 0-5 2-7 6-7l4 1c5 3 9 11 9 17z"/>
      <linearGradient id="SVGID_14_" gradientUnits="userSpaceOnUse" x1="791" y1="1810" x2="815" y2="1776" gradientTransform="translate(0 -148)">
        <stop offset="0" stop-color="#b5b5ba"/>
        <stop offset="1" stop-color="#828287"/>
      </linearGradient>
      <path d="M809 1653v3l-4-1c-6-3-10-11-10-17l1-3 4 1c5 3 9 11 9 17z" fill="url(#SVGID_14_)"/>
    </g>
    <path class="st5" d="M554 1503l-71-49c-10-7-15-17-14-30 0-13 11-19 21-13l63 42c10 7 16 27 16 40-1 13-6 17-15 10z"/>
    <linearGradient id="SVGID_15_" gradientUnits="userSpaceOnUse" x1="514" y1="1619" x2="532" y2="1594" gradientTransform="translate(0 -148)">
      <stop offset="0" stop-color="#b5b5ba"/>
      <stop offset="1" stop-color="#828287"/>
    </linearGradient>
    <path d="M568 1490c-1 4-4 4-9 1l-67-46c-6-5-10-12-10-20 1-6 4-10 8-10l63 42c8 5 14 20 15 33z" fill="url(#SVGID_15_)"/>
    <g>
      <path class="st19" d="M461 1418v4c-2 4-6 5-10 3-6-4-11-12-11-19 0-5 3-7 6-7l4 1c6 4 11 12 11 18z"/>
      <path class="st20" d="M460 1417v3c-2 4-6 6-10 3-6-4-11-12-11-18 0-5 3-8 6-8l5 2c6 3 10 11 10 18z"/>
      <linearGradient id="SVGID_16_" gradientUnits="userSpaceOnUse" x1="447" y1="1562" x2="451" y2="1558" gradientTransform="translate(0 -148)">
        <stop offset="0" stop-color="#b5b5ba"/>
        <stop offset="1" stop-color="#828287"/>
      </linearGradient>
      <path d="M453 1418l-3-3h-3l-1-1 1-3v-1l-3-3 1-1 3 1 1-2h1l1 4 3 3h1l-3 1v1l1 4z" fill="url(#SVGID_16_)"/>
    </g>
    <g style="">
      <path class="st19" d="M598 1511l-1 4c-1 4-5 5-10 2s-10-11-10-18c0-5 2-8 6-8l4 2c6 3 11 11 11 18z"/>
      <path class="st20" d="M597 1510v3c-2 4-6 5-10 3-6-4-11-12-11-19 0-5 3-7 6-7l5 1c6 4 10 12 10 19z"/>
      <linearGradient id="SVGID_17_" gradientUnits="userSpaceOnUse" x1="584" y1="1654" x2="588" y2="1651" gradientTransform="translate(0 -148)">
        <stop offset="0" stop-color="#b5b5ba"/>
        <stop offset="1" stop-color="#828287"/>
      </linearGradient>
      <path d="M589 1511l-2-3-1-1h-3l1-4-3-4h1l3 1 1-2h1l1 4 3 2v1l-2 1 1 4-1 1z" fill="url(#SVGID_17_)"/>
    </g>
    <path class="st2" d="M2397 414l-1 1a14 14 0 0 1-13 0l-84-57-1-1c-2-2-1-4 2-6a14 14 0 0 1 12-1l85 58c2 1 2 4 0 6z"/>
    <path class="st23" d="M2397 414l-1 1a14 14 0 0 1-13 0l-84-57-1-1 1-1a14 14 0 0 1 12 0l85 57 1 1z"/>
    <path class="st2" d="M2454 451l-1 1a25 25 0 0 1-21-1c-6-4-6-10 0-13 6-4 16-4 22 0s7 9 0 13z"/>
    <path class="st23" d="M2453 452c-6 2-13 2-19 0-1-2 0-4 3-5 3-3 9-3 13 0 2 1 3 3 3 5z"/>
    <path class="st5" d="M1972 1173c0 5-3 12-8 14-4 3-8 1-8-4v-1a18 18 0 0 1 8-14c5-2 8 0 8 5z"/>
    <path d="M1969 1173c0 4-3 9-7 11-3 2-6 1-6-2 0-4 3-9 6-12 4-2 7-1 7 3z" fill="#828287"/>
    <path d="M2495 869l-5-4c-3-2-7-2-12 0l-210 122c-10 5-17 20-17 32 0 6 2 10 5 13l5 4c3 2 7 2 12-1l210-122c10-5 17-19 17-31 0-6-2-11-5-13z" fill="#bababf" stroke="#a1a1a6" stroke-width="2" stroke-linecap="round" stroke-linejoin="round" stroke-miterlimit="10"/>
    <g>
      <linearGradient id="SVGID_18_" gradientUnits="userSpaceOnUse" x1="2371" y1="1088" x2="2393" y2="1126" gradientTransform="translate(0 -148)">
        <stop offset="0" stop-color="#d9d9de"/>
        <stop offset="1" stop-color="#b6b6bb"/>
      </linearGradient>
      <path d="M2267 1037c-5 0-9-5-9-13 0-12 7-26 16-31l211-122 6-2c6 0 9 6 9 14 0 12-7 25-16 31l-211 121c-2 2-4 2-6 2z" fill="url(#SVGID_18_)"/>
      <path d="M2491 868v2c5 0 8 5 8 13 0 11-7 25-16 30l-210 121c-2 2-4 2-6 2-5 0-8-5-8-12 0-12 7-25 16-30l211-122 5-2v-2m0 0l-7 2-210 122c-10 5-17 20-17 32 0 9 4 14 10 14 2 0 4 0 7-2l210-122c10-5 17-19 17-31 0-9-4-15-10-15z" fill="#e6e6eb"/>
    </g>
    <path d="M2748 654c-4 19-15 33-29 42l-1666 932c-29 16-62 25-95 25l-8-1c-37-1-71-13-101-33l-628-423c-38-26-55-61-42-89l2-3 1-1v-1l1 2-4 8c-3 9-3 19-1 28 3 10 9 21 17 31h1c7 8 16 16 27 23l627 423a192 192 0 0 0 202 9l1665-932c8-5 14-10 19-17s8-15 10-23c4-16 2-32-4-46l1 1 3 3c4 13 5 28 2 42z" fill="#e8e8ed">
      <title>angle</title>
    </path>
  </g>
  <image class="scrsht scrone" width="384.861" height="228.563" x="15.663" y="21.947" xlink:href="img/screenshot1p.png" bx:origin="-0.422841 -0.533962"/>
  <image class="scrsht scrtwo" width="384.861" height="228.563" x="15.663" y="21.947" xlink:href="img/screenshot2p.png" bx:origin="-0.422841 -0.533962"/>
  <image class="scrsht scrthree" width="384.861" height="228.563" x="15.663" y="21.947" xlink:href="img/screenshot3p.png" bx:origin="-0.422841 -0.533962"/>
</svg>